Coordinates
version=1
nRows=5
nColumns=40
inDegrees=yes

Units are S.I. units (second, meters, Newtons, ...)
Angles are in degrees.

endheader
time	pelvis_tilt	pelvis_list	pelvis_rotation	pelvis_tx	pelvis_ty	pelvis_tz	hip_flexion_r	hip_adduction_r	hip_rotation_r	knee_angle_r	knee_angle_r_beta	ankle_angle_r	subtalar_angle_r	mtp_angle_r	hip_flexion_l	hip_adduction_l	hip_rotation_l	knee_angle_l	knee_angle_l_beta	ankle_angle_l	subtalar_angle_l	mtp_angle_l	lumbar_extension	lumbar_bending	lumbar_rotation	arm_flex_r	arm_add_r	arm_rot_r	elbow_flex_r	pro_sup_r	wrist_flex_r	wrist_dev_r	arm_flex_l	arm_add_l	arm_rot_l	elbow_flex_l	pro_sup_l	wrist_flex_l	wrist_dev_l
     42.72000000	     -4.96343847	     -5.71131959	      6.11983142	      1.03092848	      0.93023409	      0.48702672	     12.61890817	      4.41955784	    -15.47829912	     15.15182397	     15.15182397	      9.81236680	     -1.83419302	     -2.21508410	     36.07826223	    -11.87910677	      3.27896680	     66.11214984	     66.11214984	      5.55135109	    -18.96151603	     15.47751869	    -11.35607769	      5.28185893	      2.50201051	     24.75990898	    -19.56532754	      6.46250112	     62.07592959	     43.88636883	      0.00000000	      0.00000000	     11.86342984	     -6.35436814	     -7.91165088	     27.44112273	     44.98633292	      0.00000000	      0.00000000
     42.73192857	     -5.11844957	     -5.66963828	      6.31094534	      1.02974087	      0.93032840	      0.48733920	     12.10033107	      4.48871812	    -15.51487387	     14.70017630	     14.70017630	     10.04393555	     -1.76052139	     -2.19464133	     37.17634621	    -11.76861157	      3.06536411	     63.92979530	     63.92979530	      6.07021441	    -19.02721346	     15.49927594	    -11.34879490	      5.17925524	      2.21934544	     26.96622046	    -19.34591006	      6.11720869	     64.25835209	     43.85459944	      0.00000000	      0.00000000	     10.26050700	     -6.57339466	     -7.81223031	     26.39790570	     44.97046620	      0.00000000	      0.00000000
     42.74385714	     -5.26568930	     -5.61491088	      6.49636187	      1.02856128	      0.93039399	      0.48757106	     11.59133506	      4.53118343	    -15.58396664	     14.27860047	     14.27860047	     10.27772968	     -1.62987090	     -2.21925056	     38.06836537	    -11.58782694	      2.85928033	     61.47069388	     61.47069388	      6.52834977	    -19.04650319	     15.61999147	    -11.37364903	      5.07338369	      2.03214398	     29.07023002	    -19.23121505	      5.82088425	     66.69729591	     43.81238115	      0.00000000	      0.00000000	      8.73478116	     -6.73705045	     -7.70283564	     25.38346319	     44.95465078	      0.00000000	      0.00000000
     42.75578571	     -5.41327994	     -5.55968477	      6.67644772	      1.02738633	      0.93039545	      0.48768065	     11.09666695	      4.55663269	    -15.68921408	     13.87184105	     13.87184105	     10.49353119	     -1.45017161	     -2.26943027	     38.78904620	    -11.33280341	      2.70970127	     58.76880512	     58.76880512	      6.93017865	    -19.03710169	     15.82416383	    -11.41959766	      4.97880128	      1.94023328	     31.05213906	    -19.19411257	      5.51355309	     69.22399513	     43.76727835	      0.00000000	      0.00000000	      7.30370393	     -6.84846852	     -7.57814409	     24.41606782	     44.93705349	      0.00000000	      0.00000000
     42.76771429	     -5.58896448	     -5.49440229	      6.83779964	      1.02623846	      0.93029013	      0.48763439	     10.62686011	      4.55613974	    -15.80842870	     13.46066199	     13.46066199	     10.72929205	     -1.20124231	     -2.35375539	     39.36977007	    -10.97496749	      2.65619418	     55.86072753	     55.86072753	      7.28808221	    -18.97685241	     15.97372812	    -11.43537320	      4.90103342	      1.96241484	     32.93509541	    -19.22832951	      5.14322597	     71.83838094	     43.72454271	      0.00000000	      0.00000000	      5.94193268	     -6.91709129	     -7.42116393	     23.57092692	     44.91500900	      0.00000000	      0.00000000
